<svg xmlns="http://www.w3.org/2000/svg" viewBox="0 0 576 576"><g fill="#04A8E0"><path d="M310.96 193.963l-56.354 62.105-26.65-26.856c-5.874-5.916-15.43-5.95-21.343-.08-5.917 5.868-5.953 15.425-.082 21.34l49.057 49.432 77.727-85.658c5.603-6.17 5.14-15.717-1.033-21.317-6.173-5.606-15.716-5.14-21.317 1.03z"/><path d="M555.08 61.53c-3.302-11.204-13.76-19.03-25.43-19.03-2.535 0-5.06.367-7.507 1.088l-72.808 21.456c-3.58 1.057-6.862 2.86-9.76 5.358a26.946 26.946 0 0 0-5.218 5.49c-1.318-1.09-2.152-1.674-2.33-1.584-43.46-31.818-94.824-48.59-149.057-48.59-67.542 0-131.042 26.3-178.802 74.06-47.76 47.76-74.062 111.26-74.062 178.803 0 67.547 26.302 131.046 74.062 178.806s111.26 74.062 178.802 74.062 131.042-26.303 178.802-74.062c47.76-47.76 74.062-111.26 74.062-178.802 0-59.478-20.538-116.05-58.192-161.353l1.155-5.57 58.343-17.19c14.027-4.137 22.075-18.913 17.94-32.94zM183.9 469.104c-15.31 0-27.724-12.414-27.724-27.724 0-15.316 12.415-27.725 27.724-27.725 15.31 0 27.726 12.412 27.726 27.725 0 15.31-12.417 27.724-27.726 27.724zm164.79 0c-15.31 0-27.723-12.414-27.723-27.724.005-15.316 12.413-27.725 27.724-27.725 15.31 0 27.728 12.412 27.728 27.725 0 15.31-12.414 27.724-27.726 27.724zM533.786 85.356l-63.802 18.798-58.68 282.774c-1.687 8.12-8.907 13.663-16.904 13.547-.072 0-.142.02-.218.02l-251.81-.063c-9.397 0-17.015-7.628-17.015-17.028 0-9.398 7.627-17.014 17.027-17.014l238.403.06 8.024-38.67H138.44c-13.17 0-24.456-8.698-26.825-20.67L91.418 205.094c-2.865-14.475 8.244-28.13 24.09-29.603l305.97-28.5c1.65-.154 3.263-.13 4.85-.013l12.3-59.27c.86-4.152 3.215-7.575 6.327-9.97 1.803-1.59 3.94-2.852 6.403-3.58L524.162 52.7c9.02-2.66 18.48 2.497 21.14 11.515 2.657 9.02-2.498 18.482-11.517 21.14z"/></g></svg>