<svg xmlns="http://www.w3.org/2000/svg" viewBox="0 0 576 576"><path fill="#04A8E0" d="M525.8 194.826c.057-.154.126-.298.182-.455 3.028-8.55.57-17.05-3.548-29.01-3.028-9.79-5.228-36.703-2.93-72.98l.02-.33-5.02-.307 5.018.184c.08-2.133 2.554-51.505 2.846-56.057.254-3.97-1.077-7.726-3.747-10.573C516 22.5 512.28 20.9 508.41 20.9c-7.03 0-11.742 3.9-31.57 20.31-5.182 4.29-11.055 9.15-16.94 13.857-8.924 7.117-18.252 15.568-27.796 25.093-41.12-27.835-90.71-44.093-144.1-44.093-142.15 0-257.39 115.237-257.39 257.39 0 142.15 115.24 257.39 257.39 257.39s257.39-115.238 257.39-257.39c0-34.943-6.976-68.253-19.59-98.632zm-28.17 13.04c-45.796 24.376-132.217 120.4-189.093 207.56l-28.07 44.32-52.443-53.183c-24.04-24.655-98.324-82.797-115.556-92.215-7.55-4.127-5.035-11.54-4.87-11.72 7.694-8.317 14.8-11.295 36.22-24.59 20.683-12.557 53.39-33.81 62.7-38.99 11.947-6.652 10.496.202 37.02 51.546l28.806 56.878 18.467-40.628c42.11-90.854 117.45-193.524 175.8-240.06 22.16-17.728 42.38-36.038 42.11-31.762-.31 4.817-3.236 63.15-2.954 58.354-2.216 34.716-.74 67.217 3.694 81.25 7.384 21.422 6.647 23.64-11.82 33.24z"/></svg>