<?xml version="1.0" encoding="utf-8"?>
<!-- Generator: Adobe Illustrator 18.0.0, SVG Export Plug-In . SVG Version: 6.00 Build 0)  -->
<!DOCTYPE svg PUBLIC "-//W3C//DTD SVG 1.1//EN" "http://www.w3.org/Graphics/SVG/1.1/DTD/svg11.dtd">
<svg version="1.1" id="Layer_1" xmlns="http://www.w3.org/2000/svg" xmlns:xlink="http://www.w3.org/1999/xlink" x="0px" y="0px"
	 viewBox="0 0 208.6 180" enable-background="new 0 0 208.6 180" xml:space="preserve">
<g id="jN0bsA_1_">
	<g>
		<path fill="#0087CD" d="M122.4,180c-2.4-0.4-4.9-0.7-7.3-1.2c-24.6-4.8-45.2-16.2-60.7-36.1c-9.3-11.9-14.8-25.5-16.6-40.5
			C33.4,65.7,58,37.5,88.5,30.7c14.8-3.3,29.2-2.1,42.8,5.1c14.5,7.7,24,19.4,27.4,35.6c2.2,10.3,0.7,20-4.7,29.1
			c-0.2,0.3-0.3,0.5-0.4,1c0.5-0.3,0.9-0.5,1.4-0.8c15.1-9.3,27.6-21.4,38-35.6c0.4-0.5,0.5-0.9,0.1-1.5
			c-15.2-20.7-34.2-36.6-58.6-45.5c-23.6-8.6-47.1-7.3-70,2.7c-21.4,9.4-37.6,24.8-49.9,44.5c-0.9,1.5-1.8,3-2.7,4.6
			c-1.3,2.5-3.3,3.9-6.2,3.7c-2.9-0.2-4.8-1.9-5.7-4.7c0-0.1-0.1-0.1-0.1-0.2c0-0.9,0-1.8,0-2.6c0.1-1.3,0.8-2.4,1.4-3.5
			c4.5-7.9,9.7-15.3,15.8-22.1c8.6-9.7,18.3-18.1,29.5-24.7C57.8,9,69.6,4.3,82.3,1.8c4.9-1,9.8-1.7,14.9-1.7c1-0.1,2,0.2,2.9-0.1
			c2.9,0,5.8,0,8.6,0c1.2,0.3,2.5,0.1,3.8,0.2c4.6,0.2,9.1,1.1,13.6,2.1c10,2.3,19.4,5.9,28.4,10.7c8.8,4.7,17,10.3,24.6,16.8
			c3.8,3.3,7.5,6.7,11,10.3c6.6,7,12.5,14.4,17.7,22.5c0.3,0.5,0.4,1,0.7,1.5c0,0.2,0,0.3,0,0.5c-1.1,1.6-2.2,3.1-3.3,4.7
			c-11.7,16.4-25.7,30.3-42.9,40.8c-10.6,6.5-21.9,11.3-34.3,13.5c-9.7,1.7-19.3,1.7-28.6-2.1C88,116.7,79.7,108.8,76,96.7
			c-4.1-13.4,1-27.2,12.5-34.3c15-9.3,34.6-2.9,40.5,13.3c0.5,1.5,0.9,3,1.2,4.5c0.6,3.4-1.5,6.7-4.7,7.4c-3.4,0.7-6.7-1.3-7.4-4.8
			c-1.2-5.8-4.5-9.8-10.1-11.6c-9-2.8-19.1,3.5-20.5,12.9c-1.3,8.3,1.9,15.1,8.1,20.5c11.5,10,31.6,11.4,44.6-4.4
			c8.8-10.8,9.3-22.8,3.5-35c-5.9-12.3-16.1-19.5-29.2-22.5C87.2,36.6,57,53.7,50.8,83.4c-2.1,10-1.1,19.9,1.9,29.6
			c5.2,16.8,15.7,29.7,30.1,39.6c12.6,8.6,26.5,13.4,41.6,15c3,0.3,5.4,2.4,5.8,5.3c0.4,2.9-1.2,5.6-4,6.8c-0.2,0.1-0.6,0-0.7,0.4
			C124.5,180,123.4,180,122.4,180z"/>
		<path fill="#7EC2E5" d="M96.9,0.2c0-0.1,0-0.1,0-0.2c1,0,2.1,0,3.1,0C99.1,0.4,98,0.2,96.9,0.2z"/>
	</g>
</g>
</svg>
