<?xml version="1.0" encoding="utf-8"?>
<!-- Generator: Adobe Illustrator 18.0.0, SVG Export Plug-In . SVG Version: 6.00 Build 0)  -->
<!DOCTYPE svg PUBLIC "-//W3C//DTD SVG 1.1//EN" "http://www.w3.org/Graphics/SVG/1.1/DTD/svg11.dtd">
<svg version="1.1" id="Layer_1" xmlns="http://www.w3.org/2000/svg" xmlns:xlink="http://www.w3.org/1999/xlink" x="0px" y="0px" viewBox="0 0 55 40" enable-background="new 0 0 55 40" xml:space="preserve">
  <path d="M19,3v30h14V3H19z M21,7h10v11H21V7z M23,29h-2v-2h2V29z M23,26h-2v-1h2V26z M23,24h-2v-2h2V24z M23,21h-2v-2h2V21z M27,29 h-2v-2h2V29z M27,26h-2v-1h2V26z M27,24h-2v-2h2V24z M27,21h-2v-2h2V21z M31,29h-2v-2h2V29z M31,26h-2v-1h2V26z M31,24h-2v-2h2V24z M31,21h-2v-2h2V21z"/>
  <polygon points="35,27 35,35 17,35 17,27 15,27 15,37 16.3,37 16.8,37 34.9,37 36.3,37 44,37 44,27 "/>
</svg>
