<svg xmlns="http://www.w3.org/2000/svg" viewBox="0 0 576 576"><path fill="#04A8E0" d="M525.799 194.826c.058-.154.127-.298.183-.455 3.028-8.551.571-17.054-3.548-29.016-3.028-9.79-5.228-36.705-2.931-72.982.006-.086.013-.196.021-.329l-5.021-.308 5.019.184c.079-2.134 2.554-51.506 2.846-56.058.254-3.971-1.077-7.725-3.747-10.572-2.621-2.794-6.346-4.396-10.219-4.396-7.03 0-11.742 3.899-31.57 20.311-5.182 4.289-11.055 9.149-16.939 13.857-8.925 7.117-18.253 15.568-27.797 25.093C390.979 52.325 341.389 36.068 288 36.068c-142.152 0-257.389 115.237-257.389 257.39 0 142.151 115.237 257.389 257.389 257.389 142.152 0 257.39-115.237 257.39-257.389 0-34.943-6.977-68.253-19.591-98.632zm-28.168 13.041c-45.797 24.375-132.218 120.4-189.094 207.56l-28.07 44.319-52.443-53.183c-24.039-24.655-98.324-82.797-115.556-92.215-7.551-4.127-5.035-11.539-4.869-11.719 7.693-8.318 14.799-11.296 36.22-24.592 20.682-12.556 53.389-33.808 62.698-38.99 11.948-6.651 10.497.203 37.02 51.547l28.807 56.878 18.467-40.628c42.103-90.853 117.444-193.525 175.797-240.06 22.161-17.728 42.377-36.038 42.104-31.762-.309 4.817-3.236 63.151-2.954 58.354-2.217 34.716-.739 67.217 3.693 81.251 7.384 21.421 6.647 23.638-11.82 33.24z"/></svg>