<svg xmlns="http://www.w3.org/2000/svg" viewBox="0 0 576 576"><g fill="#04A8E0"><path d="M310.96 193.963l-56.354 62.105-26.651-26.856c-5.873-5.916-15.428-5.951-21.342-.081-5.917 5.869-5.953 15.426-.082 21.342l49.053 49.431 77.727-85.658c5.602-6.171 5.138-15.717-1.034-21.317-6.173-5.602-15.716-5.137-21.317 1.034z"/><path d="M555.081 61.53c-3.303-11.204-13.76-19.029-25.43-19.029-2.536 0-5.062.366-7.508 1.087l-72.808 21.456c-3.58 1.057-6.862 2.859-9.761 5.358-2.014 1.589-3.756 3.447-5.217 5.489-1.318-1.088-2.152-1.673-2.329-1.583-43.462-31.818-94.825-48.591-149.058-48.591-67.542 0-131.042 26.302-178.802 74.062-47.76 47.759-74.062 111.259-74.062 178.802 0 67.543 26.302 131.042 74.062 178.802s111.26 74.062 178.802 74.062 131.042-26.303 178.802-74.062c47.759-47.76 74.062-111.259 74.062-178.802 0-59.479-20.538-116.051-58.192-161.354l1.155-5.569 58.343-17.189c14.027-4.137 22.075-18.913 17.941-32.939zM183.898 469.104c-15.31 0-27.724-12.414-27.724-27.724 0-15.316 12.415-27.725 27.724-27.725 15.31 0 27.726 12.412 27.726 27.725 0 15.31-12.417 27.724-27.726 27.724zm164.791 0c-15.311 0-27.724-12.414-27.724-27.724.005-15.316 12.413-27.725 27.724-27.725 15.312 0 27.726 12.412 27.726 27.725 0 15.31-12.414 27.724-27.726 27.724zM533.785 85.356l-63.802 18.798-58.681 282.774c-1.686 8.121-8.906 13.663-16.903 13.547-.071 0-.141.021-.217.021l-251.809-.064c-9.398 0-17.016-7.628-17.016-17.028 0-9.398 7.627-17.014 17.027-17.014l238.403.059 8.024-38.67H138.438c-13.17 0-24.456-8.697-26.825-20.668L91.418 205.093c-2.865-14.475 8.244-28.131 24.089-29.603l305.97-28.5c1.652-.157 3.264-.129 4.852-.016l12.298-59.27c.861-4.152 3.216-7.575 6.328-9.971 1.803-1.589 3.94-2.851 6.403-3.578L524.162 52.7c9.02-2.66 18.481 2.497 21.14 11.515 2.657 9.02-2.498 18.482-11.517 21.141z"/></g></svg>