<svg xmlns="http://www.w3.org/2000/svg" viewBox="0 0 576 576"><g class="outer"><path d="M310.96 193.963l-56.354 62.105-26.65-26.856c-5.874-5.916-15.43-5.95-21.343-.08-5.917 5.868-5.953 15.425-.082 21.34l49.054 49.432 77.727-85.658c5.604-6.17 5.14-15.717-1.032-21.317-6.174-5.603-15.717-5.138-21.318 1.033z"/><path d="M555.08 61.53c-3.302-11.204-13.76-19.03-25.43-19.03-2.535 0-5.062.367-7.508 1.088l-72.808 21.456c-3.58 1.057-6.862 2.86-9.76 5.358-2.016 1.59-3.757 3.447-5.218 5.49-1.318-1.09-2.152-1.674-2.33-1.584-43.46-31.818-94.823-48.59-149.056-48.59-67.542 0-131.042 26.3-178.802 74.06-47.76 47.76-74.062 111.26-74.062 178.803s26.302 131.043 74.062 178.803c47.76 47.76 111.26 74.063 178.802 74.063 67.542 0 131.042-26.304 178.802-74.063 47.76-47.76 74.062-111.26 74.062-178.802 0-59.478-20.538-116.05-58.192-161.353l1.155-5.57L537.14 94.47c14.027-4.138 22.075-18.914 17.94-32.94zM183.9 469.104c-15.31 0-27.724-12.413-27.724-27.724 0-15.315 12.415-27.725 27.724-27.725 15.31 0 27.726 12.412 27.726 27.725 0 15.31-12.417 27.724-27.726 27.724zm164.79 0c-15.31 0-27.724-12.413-27.724-27.724.005-15.315 12.413-27.725 27.725-27.725s27.725 12.412 27.725 27.725c0 15.31-12.414 27.724-27.726 27.724zM533.786 85.356l-63.802 18.798L411.3 386.928c-1.685 8.12-8.905 13.663-16.9 13.547-.072 0-.143.02-.22.02l-251.808-.063c-9.398 0-17.016-7.627-17.016-17.027 0-9.398 7.627-17.014 17.027-17.014l238.403.06 8.023-38.67H138.437c-13.17 0-24.456-8.697-26.825-20.668l-20.195-102.02c-2.865-14.474 8.244-28.13 24.09-29.602l305.97-28.5c1.65-.157 3.264-.13 4.852-.016l12.298-59.27c.86-4.152 3.216-7.575 6.328-9.97 1.803-1.59 3.94-2.852 6.403-3.58L524.16 52.7c9.02-2.66 18.48 2.497 21.14 11.515 2.657 9.02-2.498 18.482-11.517 21.14z"/></g><g class="inner"><circle cx="348.689" cy="441.379" r="27.724"/><circle cx="183.898" cy="441.379" r="27.724"/><path d="M545.302 64.215c-2.66-9.018-12.12-14.175-21.14-11.515l-72.804 21.455c-2.464.727-4.6 1.99-6.403 3.578-3.112 2.396-5.467 5.82-6.328 9.97l-12.298 59.27c-1.59-.112-3.2-.14-4.854.017l-305.97 28.5c-15.845 1.472-26.954 15.128-24.09 29.603l20.196 102.02c2.37 11.97 13.655 20.667 26.825 20.667H388.81l-8.023 38.67-238.403-.06c-9.4 0-17.027 7.616-17.027 17.015 0 9.4 7.618 17.027 17.016 17.027l251.81.064c.075 0 .145-.02.217-.02 7.996.115 15.217-5.427 16.902-13.548l58.682-282.774 63.802-18.798c9.018-2.66 14.173-12.12 11.516-21.14zm-211.99 150.03l-77.728 85.66-49.053-49.432c-5.87-5.916-5.834-15.473.083-21.342 5.914-5.87 15.47-5.834 21.342.082l26.65 26.856 56.355-62.105c5.6-6.17 15.144-6.636 21.317-1.034 6.172 5.6 6.636 15.145 1.034 21.316z"/></g></svg>